<mxfile host="app.diagrams.net" agent="Mozilla/5.0 (Windows NT 10.0; Win64; x64; rv:131.0) Gecko/20100101 Firefox/131.0" version="24.8.2">
  <diagram name="Page-1" id="c4acf3e9-155e-7222-9cf6-157b1a14988f">
    <mxGraphModel dx="4023" dy="2954" grid="1" gridSize="10" guides="1" tooltips="1" connect="1" arrows="1" fold="1" page="1" pageScale="1" pageWidth="850" pageHeight="1100" background="none" math="0" shadow="0">
      <root>
        <mxCell id="0" />
        <mxCell id="1" parent="0" />
        <mxCell id="C7hl9YMj6tLl1fAZTuB5-10" value="Spielfigur" style="swimlane;fontStyle=1;align=center;verticalAlign=top;childLayout=stackLayout;horizontal=1;startSize=26;horizontalStack=0;resizeParent=1;resizeParentMax=0;resizeLast=0;collapsible=1;marginBottom=0;whiteSpace=wrap;html=1;" parent="1" vertex="1">
          <mxGeometry x="-2500" y="-800" width="160" height="140" as="geometry" />
        </mxCell>
        <mxCell id="C7hl9YMj6tLl1fAZTuB5-11" value="&lt;div&gt;+ spielfigurID: Int&lt;br&gt;&lt;/div&gt;&lt;div&gt;+ Farbe: Farbe&lt;/div&gt;&lt;div&gt;+ Position: Int&lt;/div&gt;&lt;div&gt;+ Status: String&lt;br&gt;&lt;/div&gt;" style="text;strokeColor=none;fillColor=none;align=left;verticalAlign=top;spacingLeft=4;spacingRight=4;overflow=hidden;rotatable=0;points=[[0,0.5],[1,0.5]];portConstraint=eastwest;whiteSpace=wrap;html=1;" parent="C7hl9YMj6tLl1fAZTuB5-10" vertex="1">
          <mxGeometry y="26" width="160" height="64" as="geometry" />
        </mxCell>
        <mxCell id="C7hl9YMj6tLl1fAZTuB5-12" value="" style="line;strokeWidth=1;fillColor=none;align=left;verticalAlign=middle;spacingTop=-1;spacingLeft=3;spacingRight=3;rotatable=0;labelPosition=right;points=[];portConstraint=eastwest;strokeColor=inherit;" parent="C7hl9YMj6tLl1fAZTuB5-10" vertex="1">
          <mxGeometry y="90" width="160" height="8" as="geometry" />
        </mxCell>
        <mxCell id="C7hl9YMj6tLl1fAZTuB5-13" value="&lt;div&gt;+ Bewegen(position)&lt;/div&gt;&lt;div&gt;+ Schlagen()&lt;br&gt;&lt;/div&gt;" style="text;strokeColor=none;fillColor=none;align=left;verticalAlign=top;spacingLeft=4;spacingRight=4;overflow=hidden;rotatable=0;points=[[0,0.5],[1,0.5]];portConstraint=eastwest;whiteSpace=wrap;html=1;" parent="C7hl9YMj6tLl1fAZTuB5-10" vertex="1">
          <mxGeometry y="98" width="160" height="42" as="geometry" />
        </mxCell>
        <mxCell id="C7hl9YMj6tLl1fAZTuB5-14" value="&lt;div&gt;Spielzug&lt;/div&gt;" style="swimlane;fontStyle=1;align=center;verticalAlign=top;childLayout=stackLayout;horizontal=1;startSize=26;horizontalStack=0;resizeParent=1;resizeParentMax=0;resizeLast=0;collapsible=1;marginBottom=0;whiteSpace=wrap;html=1;" parent="1" vertex="1">
          <mxGeometry x="-2250" y="-1060" width="160" height="120" as="geometry" />
        </mxCell>
        <mxCell id="C7hl9YMj6tLl1fAZTuB5-15" value="&lt;div&gt;+ SpielzugID: Int&lt;/div&gt;&lt;div&gt;+ WÃ¼rfelergebnis&lt;/div&gt;" style="text;strokeColor=none;fillColor=none;align=left;verticalAlign=top;spacingLeft=4;spacingRight=4;overflow=hidden;rotatable=0;points=[[0,0.5],[1,0.5]];portConstraint=eastwest;whiteSpace=wrap;html=1;" parent="C7hl9YMj6tLl1fAZTuB5-14" vertex="1">
          <mxGeometry y="26" width="160" height="44" as="geometry" />
        </mxCell>
        <mxCell id="C7hl9YMj6tLl1fAZTuB5-16" value="" style="line;strokeWidth=1;fillColor=none;align=left;verticalAlign=middle;spacingTop=-1;spacingLeft=3;spacingRight=3;rotatable=0;labelPosition=right;points=[];portConstraint=eastwest;strokeColor=inherit;" parent="C7hl9YMj6tLl1fAZTuB5-14" vertex="1">
          <mxGeometry y="70" width="160" height="50" as="geometry" />
        </mxCell>
        <mxCell id="C7hl9YMj6tLl1fAZTuB5-18" value="&lt;div&gt;Spielfeld&lt;/div&gt;" style="swimlane;fontStyle=1;align=center;verticalAlign=top;childLayout=stackLayout;horizontal=1;startSize=26;horizontalStack=0;resizeParent=1;resizeParentMax=0;resizeLast=0;collapsible=1;marginBottom=0;whiteSpace=wrap;html=1;" parent="1" vertex="1">
          <mxGeometry x="-2250" y="-867" width="160" height="88" as="geometry" />
        </mxCell>
        <mxCell id="C7hl9YMj6tLl1fAZTuB5-19" value="&lt;div&gt;+ SpielfeldID: Int&lt;/div&gt;&lt;div&gt;+ Besetzt: bool&lt;br&gt;&lt;/div&gt;" style="text;strokeColor=none;fillColor=none;align=left;verticalAlign=top;spacingLeft=4;spacingRight=4;overflow=hidden;rotatable=0;points=[[0,0.5],[1,0.5]];portConstraint=eastwest;whiteSpace=wrap;html=1;" parent="C7hl9YMj6tLl1fAZTuB5-18" vertex="1">
          <mxGeometry y="26" width="160" height="54" as="geometry" />
        </mxCell>
        <mxCell id="C7hl9YMj6tLl1fAZTuB5-20" value="" style="line;strokeWidth=1;fillColor=none;align=left;verticalAlign=middle;spacingTop=-1;spacingLeft=3;spacingRight=3;rotatable=0;labelPosition=right;points=[];portConstraint=eastwest;strokeColor=inherit;" parent="C7hl9YMj6tLl1fAZTuB5-18" vertex="1">
          <mxGeometry y="80" width="160" height="8" as="geometry" />
        </mxCell>
        <mxCell id="C7hl9YMj6tLl1fAZTuB5-22" value="&lt;div&gt;Startfeld&lt;/div&gt;" style="swimlane;fontStyle=1;align=center;verticalAlign=top;childLayout=stackLayout;horizontal=1;startSize=26;horizontalStack=0;resizeParent=1;resizeParentMax=0;resizeLast=0;collapsible=1;marginBottom=0;whiteSpace=wrap;html=1;" parent="1" vertex="1">
          <mxGeometry x="-2325" y="-670" width="160" height="86" as="geometry" />
        </mxCell>
        <mxCell id="C7hl9YMj6tLl1fAZTuB5-23" value="+ Farbe: Farbe" style="text;strokeColor=none;fillColor=none;align=left;verticalAlign=top;spacingLeft=4;spacingRight=4;overflow=hidden;rotatable=0;points=[[0,0.5],[1,0.5]];portConstraint=eastwest;whiteSpace=wrap;html=1;" parent="C7hl9YMj6tLl1fAZTuB5-22" vertex="1">
          <mxGeometry y="26" width="160" height="26" as="geometry" />
        </mxCell>
        <mxCell id="C7hl9YMj6tLl1fAZTuB5-24" value="" style="line;strokeWidth=1;fillColor=none;align=left;verticalAlign=middle;spacingTop=-1;spacingLeft=3;spacingRight=3;rotatable=0;labelPosition=right;points=[];portConstraint=eastwest;strokeColor=inherit;" parent="C7hl9YMj6tLl1fAZTuB5-22" vertex="1">
          <mxGeometry y="52" width="160" height="8" as="geometry" />
        </mxCell>
        <mxCell id="C7hl9YMj6tLl1fAZTuB5-25" value="+ method(type): type" style="text;strokeColor=none;fillColor=none;align=left;verticalAlign=top;spacingLeft=4;spacingRight=4;overflow=hidden;rotatable=0;points=[[0,0.5],[1,0.5]];portConstraint=eastwest;whiteSpace=wrap;html=1;" parent="C7hl9YMj6tLl1fAZTuB5-22" vertex="1">
          <mxGeometry y="60" width="160" height="26" as="geometry" />
        </mxCell>
        <mxCell id="C7hl9YMj6tLl1fAZTuB5-26" value="Zielfeld" style="swimlane;fontStyle=1;align=center;verticalAlign=top;childLayout=stackLayout;horizontal=1;startSize=26;horizontalStack=0;resizeParent=1;resizeParentMax=0;resizeLast=0;collapsible=1;marginBottom=0;whiteSpace=wrap;html=1;" parent="1" vertex="1">
          <mxGeometry x="-2125" y="-700" width="160" height="86" as="geometry" />
        </mxCell>
        <mxCell id="C7hl9YMj6tLl1fAZTuB5-27" value="+ Farbe: Farbe" style="text;strokeColor=none;fillColor=none;align=left;verticalAlign=top;spacingLeft=4;spacingRight=4;overflow=hidden;rotatable=0;points=[[0,0.5],[1,0.5]];portConstraint=eastwest;whiteSpace=wrap;html=1;" parent="C7hl9YMj6tLl1fAZTuB5-26" vertex="1">
          <mxGeometry y="26" width="160" height="26" as="geometry" />
        </mxCell>
        <mxCell id="C7hl9YMj6tLl1fAZTuB5-28" value="" style="line;strokeWidth=1;fillColor=none;align=left;verticalAlign=middle;spacingTop=-1;spacingLeft=3;spacingRight=3;rotatable=0;labelPosition=right;points=[];portConstraint=eastwest;strokeColor=inherit;" parent="C7hl9YMj6tLl1fAZTuB5-26" vertex="1">
          <mxGeometry y="52" width="160" height="8" as="geometry" />
        </mxCell>
        <mxCell id="C7hl9YMj6tLl1fAZTuB5-29" value="+ method(type): type" style="text;strokeColor=none;fillColor=none;align=left;verticalAlign=top;spacingLeft=4;spacingRight=4;overflow=hidden;rotatable=0;points=[[0,0.5],[1,0.5]];portConstraint=eastwest;whiteSpace=wrap;html=1;" parent="C7hl9YMj6tLl1fAZTuB5-26" vertex="1">
          <mxGeometry y="60" width="160" height="26" as="geometry" />
        </mxCell>
        <mxCell id="C7hl9YMj6tLl1fAZTuB5-35" value="" style="endArrow=none;html=1;rounded=0;exitX=0.5;exitY=0;exitDx=0;exitDy=0;entryX=0.45;entryY=1.014;entryDx=0;entryDy=0;entryPerimeter=0;" parent="1" source="C7hl9YMj6tLl1fAZTuB5-10" target="wN1PEvh7uWT37KcopOl2-4" edge="1">
          <mxGeometry width="50" height="50" relative="1" as="geometry">
            <mxPoint x="-2100" y="-827" as="sourcePoint" />
            <mxPoint x="-2420" y="-840" as="targetPoint" />
          </mxGeometry>
        </mxCell>
        <mxCell id="C7hl9YMj6tLl1fAZTuB5-36" value="1" style="text;html=1;align=center;verticalAlign=middle;resizable=0;points=[];autosize=1;strokeColor=none;fillColor=none;" parent="1" vertex="1">
          <mxGeometry x="-2415" y="-867" width="30" height="30" as="geometry" />
        </mxCell>
        <mxCell id="C7hl9YMj6tLl1fAZTuB5-37" value="4" style="text;html=1;align=center;verticalAlign=middle;resizable=0;points=[];autosize=1;strokeColor=none;fillColor=none;" parent="1" vertex="1">
          <mxGeometry x="-2415" y="-830" width="30" height="30" as="geometry" />
        </mxCell>
        <mxCell id="clYdfjqU0yGAA0JJsByW-1" value="Spiel" style="swimlane;fontStyle=1;align=center;verticalAlign=top;childLayout=stackLayout;horizontal=1;startSize=26;horizontalStack=0;resizeParent=1;resizeParentMax=0;resizeLast=0;collapsible=1;marginBottom=0;whiteSpace=wrap;html=1;" parent="1" vertex="1">
          <mxGeometry x="-2250" y="-1277" width="160" height="100" as="geometry" />
        </mxCell>
        <mxCell id="clYdfjqU0yGAA0JJsByW-2" value="+ SpielID: Int" style="text;strokeColor=none;fillColor=none;align=left;verticalAlign=top;spacingLeft=4;spacingRight=4;overflow=hidden;rotatable=0;points=[[0,0.5],[1,0.5]];portConstraint=eastwest;whiteSpace=wrap;html=1;" parent="clYdfjqU0yGAA0JJsByW-1" vertex="1">
          <mxGeometry y="26" width="160" height="26" as="geometry" />
        </mxCell>
        <mxCell id="clYdfjqU0yGAA0JJsByW-3" value="" style="line;strokeWidth=1;fillColor=none;align=left;verticalAlign=middle;spacingTop=-1;spacingLeft=3;spacingRight=3;rotatable=0;labelPosition=right;points=[];portConstraint=eastwest;strokeColor=inherit;" parent="clYdfjqU0yGAA0JJsByW-1" vertex="1">
          <mxGeometry y="52" width="160" height="8" as="geometry" />
        </mxCell>
        <mxCell id="clYdfjqU0yGAA0JJsByW-4" value="&lt;div&gt;+ spielStarten()&lt;/div&gt;&lt;div&gt;+ spielBeenden()&lt;br&gt;&lt;/div&gt;" style="text;strokeColor=none;fillColor=none;align=left;verticalAlign=top;spacingLeft=4;spacingRight=4;overflow=hidden;rotatable=0;points=[[0,0.5],[1,0.5]];portConstraint=eastwest;whiteSpace=wrap;html=1;" parent="clYdfjqU0yGAA0JJsByW-1" vertex="1">
          <mxGeometry y="60" width="160" height="40" as="geometry" />
        </mxCell>
        <mxCell id="clYdfjqU0yGAA0JJsByW-5" value="Regelwerk" style="swimlane;fontStyle=1;align=center;verticalAlign=top;childLayout=stackLayout;horizontal=1;startSize=26;horizontalStack=0;resizeParent=1;resizeParentMax=0;resizeLast=0;collapsible=1;marginBottom=0;whiteSpace=wrap;html=1;" parent="1" vertex="1">
          <mxGeometry x="-1980" y="-1260" width="160" height="190" as="geometry" />
        </mxCell>
        <mxCell id="clYdfjqU0yGAA0JJsByW-6" value="&lt;div&gt;+ schlagenErlaubt : bool&lt;/div&gt;&lt;div&gt;+ maxAnzahlSpieler: Int&lt;/div&gt;&lt;div&gt;+ maxAnzahlFiguren: Int&lt;/div&gt;&lt;div&gt;+ figurProSpieler: Int&lt;br&gt;&lt;/div&gt;" style="text;strokeColor=none;fillColor=none;align=left;verticalAlign=top;spacingLeft=4;spacingRight=4;overflow=hidden;rotatable=0;points=[[0,0.5],[1,0.5]];portConstraint=eastwest;whiteSpace=wrap;html=1;" parent="clYdfjqU0yGAA0JJsByW-5" vertex="1">
          <mxGeometry y="26" width="160" height="84" as="geometry" />
        </mxCell>
        <mxCell id="clYdfjqU0yGAA0JJsByW-7" value="" style="line;strokeWidth=1;fillColor=none;align=left;verticalAlign=middle;spacingTop=-1;spacingLeft=3;spacingRight=3;rotatable=0;labelPosition=right;points=[];portConstraint=eastwest;strokeColor=inherit;" parent="clYdfjqU0yGAA0JJsByW-5" vertex="1">
          <mxGeometry y="110" width="160" height="80" as="geometry" />
        </mxCell>
        <mxCell id="clYdfjqU0yGAA0JJsByW-16" value="" style="endArrow=none;html=1;rounded=0;exitX=1;exitY=0.5;exitDx=0;exitDy=0;entryX=0;entryY=0.5;entryDx=0;entryDy=0;" parent="1" source="C7hl9YMj6tLl1fAZTuB5-11" target="C7hl9YMj6tLl1fAZTuB5-19" edge="1">
          <mxGeometry width="50" height="50" relative="1" as="geometry">
            <mxPoint x="-2060" y="-850" as="sourcePoint" />
            <mxPoint x="-2010" y="-900" as="targetPoint" />
          </mxGeometry>
        </mxCell>
        <mxCell id="clYdfjqU0yGAA0JJsByW-17" value="" style="endArrow=none;html=1;rounded=0;exitX=0.5;exitY=0;exitDx=0;exitDy=0;" parent="1" source="C7hl9YMj6tLl1fAZTuB5-14" edge="1">
          <mxGeometry width="50" height="50" relative="1" as="geometry">
            <mxPoint x="-2060" y="-1050" as="sourcePoint" />
            <mxPoint x="-2170" y="-1170" as="targetPoint" />
          </mxGeometry>
        </mxCell>
        <mxCell id="clYdfjqU0yGAA0JJsByW-18" value="" style="endArrow=none;html=1;rounded=0;entryX=0;entryY=0.5;entryDx=0;entryDy=0;exitX=0.5;exitY=0;exitDx=0;exitDy=0;" parent="1" source="wN1PEvh7uWT37KcopOl2-1" edge="1">
          <mxGeometry width="50" height="50" relative="1" as="geometry">
            <mxPoint x="-2380" y="-1090" as="sourcePoint" />
            <mxPoint x="-2250" y="-1222" as="targetPoint" />
          </mxGeometry>
        </mxCell>
        <mxCell id="clYdfjqU0yGAA0JJsByW-19" value="" style="endArrow=none;html=1;rounded=0;entryX=-0.031;entryY=0.808;entryDx=0;entryDy=0;entryPerimeter=0;exitX=1;exitY=0.808;exitDx=0;exitDy=0;exitPerimeter=0;" parent="1" source="clYdfjqU0yGAA0JJsByW-2" target="clYdfjqU0yGAA0JJsByW-6" edge="1">
          <mxGeometry width="50" height="50" relative="1" as="geometry">
            <mxPoint x="-2040" y="-1150" as="sourcePoint" />
            <mxPoint x="-2010" y="-1040" as="targetPoint" />
          </mxGeometry>
        </mxCell>
        <mxCell id="clYdfjqU0yGAA0JJsByW-20" value="Farbe" style="swimlane;fontStyle=0;childLayout=stackLayout;horizontal=1;startSize=26;fillColor=none;horizontalStack=0;resizeParent=1;resizeParentMax=0;resizeLast=0;collapsible=1;marginBottom=0;whiteSpace=wrap;html=1;" parent="1" vertex="1">
          <mxGeometry x="-1890" y="-730" width="140" height="110" as="geometry" />
        </mxCell>
        <mxCell id="clYdfjqU0yGAA0JJsByW-21" value="&lt;div&gt;Rot&lt;/div&gt;&lt;div&gt;Gelb&lt;/div&gt;&lt;div&gt;GrÃ¼n&lt;/div&gt;&lt;div&gt;Blau&lt;br&gt;&lt;/div&gt;" style="text;strokeColor=none;fillColor=none;align=left;verticalAlign=top;spacingLeft=4;spacingRight=4;overflow=hidden;rotatable=0;points=[[0,0.5],[1,0.5]];portConstraint=eastwest;whiteSpace=wrap;html=1;" parent="clYdfjqU0yGAA0JJsByW-20" vertex="1">
          <mxGeometry y="26" width="140" height="84" as="geometry" />
        </mxCell>
        <mxCell id="clYdfjqU0yGAA0JJsByW-24" value="Extends" style="endArrow=block;endSize=16;endFill=0;html=1;rounded=0;exitX=0.5;exitY=0;exitDx=0;exitDy=0;entryX=0.45;entryY=1.269;entryDx=0;entryDy=0;entryPerimeter=0;" parent="1" source="C7hl9YMj6tLl1fAZTuB5-22" edge="1">
          <mxGeometry width="160" relative="1" as="geometry">
            <mxPoint x="-2120" y="-850" as="sourcePoint" />
            <mxPoint x="-2178" y="-774.0060000000001" as="targetPoint" />
          </mxGeometry>
        </mxCell>
        <mxCell id="clYdfjqU0yGAA0JJsByW-25" value="Extends" style="endArrow=block;endSize=16;endFill=0;html=1;rounded=0;exitX=0.5;exitY=0;exitDx=0;exitDy=0;entryX=0.581;entryY=1.192;entryDx=0;entryDy=0;entryPerimeter=0;" parent="1" source="C7hl9YMj6tLl1fAZTuB5-26" edge="1">
          <mxGeometry width="160" relative="1" as="geometry">
            <mxPoint x="-2295" y="-690" as="sourcePoint" />
            <mxPoint x="-2157.04" y="-776.008" as="targetPoint" />
          </mxGeometry>
        </mxCell>
        <mxCell id="clYdfjqU0yGAA0JJsByW-26" value="1" style="text;html=1;align=center;verticalAlign=middle;resizable=0;points=[];autosize=1;strokeColor=none;fillColor=none;" parent="1" vertex="1">
          <mxGeometry x="-2165" y="-1172" width="30" height="30" as="geometry" />
        </mxCell>
        <mxCell id="clYdfjqU0yGAA0JJsByW-27" value="0..*" style="text;html=1;align=center;verticalAlign=middle;resizable=0;points=[];autosize=1;strokeColor=none;fillColor=none;" parent="1" vertex="1">
          <mxGeometry x="-2180" y="-1092" width="40" height="30" as="geometry" />
        </mxCell>
        <mxCell id="clYdfjqU0yGAA0JJsByW-31" value="2..4" style="text;html=1;align=center;verticalAlign=middle;resizable=0;points=[];autosize=1;strokeColor=none;fillColor=none;" parent="1" vertex="1">
          <mxGeometry x="-2450" y="-1102" width="40" height="30" as="geometry" />
        </mxCell>
        <mxCell id="clYdfjqU0yGAA0JJsByW-32" value="1..*" style="text;html=1;align=center;verticalAlign=middle;resizable=0;points=[];autosize=1;strokeColor=none;fillColor=none;" parent="1" vertex="1">
          <mxGeometry x="-2295" y="-1231" width="40" height="30" as="geometry" />
        </mxCell>
        <mxCell id="clYdfjqU0yGAA0JJsByW-33" value="1..*" style="text;html=1;align=center;verticalAlign=middle;resizable=0;points=[];autosize=1;strokeColor=none;fillColor=none;" parent="1" vertex="1">
          <mxGeometry x="-2090" y="-1247" width="40" height="30" as="geometry" />
        </mxCell>
        <mxCell id="clYdfjqU0yGAA0JJsByW-34" value="1" style="text;html=1;align=center;verticalAlign=middle;resizable=0;points=[];autosize=1;strokeColor=none;fillColor=none;" parent="1" vertex="1">
          <mxGeometry x="-2025" y="-1222" width="30" height="30" as="geometry" />
        </mxCell>
        <mxCell id="clYdfjqU0yGAA0JJsByW-35" value="0..1" style="text;html=1;align=center;verticalAlign=middle;resizable=0;points=[];autosize=1;strokeColor=none;fillColor=none;" parent="1" vertex="1">
          <mxGeometry x="-2335" y="-785" width="40" height="30" as="geometry" />
        </mxCell>
        <mxCell id="clYdfjqU0yGAA0JJsByW-36" value="1" style="text;html=1;align=center;verticalAlign=middle;resizable=0;points=[];autosize=1;strokeColor=none;fillColor=none;" parent="1" vertex="1">
          <mxGeometry x="-2285" y="-842" width="30" height="30" as="geometry" />
        </mxCell>
        <mxCell id="wN1PEvh7uWT37KcopOl2-1" value="Spieler" style="swimlane;fontStyle=1;align=center;verticalAlign=top;childLayout=stackLayout;horizontal=1;startSize=26;horizontalStack=0;resizeParent=1;resizeParentMax=0;resizeLast=0;collapsible=1;marginBottom=0;whiteSpace=wrap;html=1;" vertex="1" parent="1">
          <mxGeometry x="-2495" y="-1060" width="160" height="190" as="geometry" />
        </mxCell>
        <mxCell id="wN1PEvh7uWT37KcopOl2-2" value="&lt;div&gt;+ SpielerID: Int&lt;/div&gt;&lt;div&gt;+ Name: String&lt;br&gt;&lt;/div&gt;&lt;div&gt;+ E-Mail: String&lt;/div&gt;&lt;div&gt;+ gewonneneSpiele: Int&lt;br&gt;&lt;/div&gt;" style="text;strokeColor=none;fillColor=none;align=left;verticalAlign=top;spacingLeft=4;spacingRight=4;overflow=hidden;rotatable=0;points=[[0,0.5],[1,0.5]];portConstraint=eastwest;whiteSpace=wrap;html=1;" vertex="1" parent="wN1PEvh7uWT37KcopOl2-1">
          <mxGeometry y="26" width="160" height="64" as="geometry" />
        </mxCell>
        <mxCell id="wN1PEvh7uWT37KcopOl2-3" value="" style="line;strokeWidth=1;fillColor=none;align=left;verticalAlign=middle;spacingTop=-1;spacingLeft=3;spacingRight=3;rotatable=0;labelPosition=right;points=[];portConstraint=eastwest;strokeColor=inherit;" vertex="1" parent="wN1PEvh7uWT37KcopOl2-1">
          <mxGeometry y="90" width="160" height="8" as="geometry" />
        </mxCell>
        <mxCell id="wN1PEvh7uWT37KcopOl2-4" value="&lt;div&gt;+WÃ¼rfeln()&lt;/div&gt;&lt;div&gt;+ Anmelden()&lt;/div&gt;&lt;div&gt;+ zugDurchfÃ¼hren()&lt;/div&gt;&lt;div&gt;+ zugÃbergeben()&lt;/div&gt;&lt;div&gt;+ figurAuswÃ¤hlen()&lt;br&gt;&lt;/div&gt;&lt;div&gt;+ spielBeitreten()&lt;br&gt;&lt;/div&gt;" style="text;strokeColor=none;fillColor=none;align=left;verticalAlign=top;spacingLeft=4;spacingRight=4;overflow=hidden;rotatable=0;points=[[0,0.5],[1,0.5]];portConstraint=eastwest;whiteSpace=wrap;html=1;" vertex="1" parent="wN1PEvh7uWT37KcopOl2-1">
          <mxGeometry y="98" width="160" height="92" as="geometry" />
        </mxCell>
        <mxCell id="wN1PEvh7uWT37KcopOl2-5" value="" style="endArrow=none;html=1;rounded=0;entryX=1.013;entryY=0.703;entryDx=0;entryDy=0;entryPerimeter=0;exitX=0;exitY=0.5;exitDx=0;exitDy=0;" edge="1" parent="1" source="C7hl9YMj6tLl1fAZTuB5-14" target="wN1PEvh7uWT37KcopOl2-2">
          <mxGeometry width="50" height="50" relative="1" as="geometry">
            <mxPoint x="-2160" y="-1010" as="sourcePoint" />
            <mxPoint x="-2110" y="-1060" as="targetPoint" />
          </mxGeometry>
        </mxCell>
        <mxCell id="wN1PEvh7uWT37KcopOl2-6" value="1" style="text;html=1;align=center;verticalAlign=middle;resizable=0;points=[];autosize=1;strokeColor=none;fillColor=none;" vertex="1" parent="1">
          <mxGeometry x="-2325" y="-1022" width="30" height="30" as="geometry" />
        </mxCell>
        <mxCell id="wN1PEvh7uWT37KcopOl2-7" value="1..*" style="text;html=1;align=center;verticalAlign=middle;resizable=0;points=[];autosize=1;strokeColor=none;fillColor=none;" vertex="1" parent="1">
          <mxGeometry x="-2290" y="-1042" width="40" height="30" as="geometry" />
        </mxCell>
        <mxCell id="wN1PEvh7uWT37KcopOl2-12" value="spiel_beendet" style="text;strokeColor=none;fillColor=none;align=left;verticalAlign=top;spacingLeft=4;spacingRight=4;overflow=hidden;rotatable=0;points=[[0,0.5],[1,0.5]];portConstraint=eastwest;whiteSpace=wrap;html=1;" vertex="1" parent="1">
          <mxGeometry x="-1980" y="-1110" width="160" height="84" as="geometry" />
        </mxCell>
        <mxCell id="wN1PEvh7uWT37KcopOl2-13" value="" style="endArrow=none;html=1;rounded=0;exitX=1;exitY=0;exitDx=0;exitDy=0;" edge="1" parent="1" source="C7hl9YMj6tLl1fAZTuB5-10">
          <mxGeometry width="50" height="50" relative="1" as="geometry">
            <mxPoint x="-2180" y="-890" as="sourcePoint" />
            <mxPoint x="-2180" y="-940" as="targetPoint" />
          </mxGeometry>
        </mxCell>
        <mxCell id="wN1PEvh7uWT37KcopOl2-14" value="1..*" style="text;html=1;align=center;verticalAlign=middle;resizable=0;points=[];autosize=1;strokeColor=none;fillColor=none;" vertex="1" parent="1">
          <mxGeometry x="-2250" y="-930" width="40" height="30" as="geometry" />
        </mxCell>
        <mxCell id="wN1PEvh7uWT37KcopOl2-15" value="0..1" style="text;html=1;align=center;verticalAlign=middle;resizable=0;points=[];autosize=1;strokeColor=none;fillColor=none;" vertex="1" parent="1">
          <mxGeometry x="-2370" y="-832" width="40" height="30" as="geometry" />
        </mxCell>
      </root>
    </mxGraphModel>
  </diagram>
</mxfile>
